<?xml version="1.0" encoding="UTF-8"?> <svg xmlns="http://www.w3.org/2000/svg" width="2522" height="1512" viewBox="0 0 2522 1512" fill="none"> <g clip-path="url(#clip0_2050_4703)"> <path d="M192.988 521.714L260.241 719.186H119.399L192.988 521.714ZM216.868 422.734L54.5824 848.883L0 871.312V883.014H119.886V871.312L69.2027 848.883L114.526 730.888H263.653L311.412 863.998L265.602 871.312V883.014H430.324V871.312L379.153 863.023L226.127 422.734H216.868Z" fill="#0F0F0D"></path> <path d="M458.102 871.313L509.76 863.024V454.428L458.102 446.626V433.949H629.159C669.608 433.949 701.773 437.85 725.653 445.164C749.533 452.477 767.077 464.179 777.799 479.295C788.52 494.41 793.881 514.401 793.881 539.267C793.881 592.902 759.767 627.52 692.026 642.635V645.561C733.45 651.412 765.615 663.602 789.007 682.617C811.913 701.633 823.609 728.45 823.609 762.094C823.609 803.051 808.501 833.769 778.286 853.76C748.071 873.751 707.621 883.502 656.45 883.502H458.102V871.313ZM633.545 640.685C663.273 640.685 686.665 632.396 702.748 615.331C718.83 598.265 727.115 574.374 727.115 543.656V540.243C727.115 478.807 694.463 448.089 629.646 448.089H571.652V640.685H633.545ZM655.963 869.362C687.64 869.362 712.495 860.098 730.039 841.57C747.583 823.042 756.355 796.712 756.355 762.094V755.755C756.355 721.624 747.583 696.27 730.039 679.204C712.495 662.139 687.64 653.85 655.963 653.85H571.165V868.875H655.963V869.362Z" fill="#0F0F0D"></path> <path d="M892.812 871.313L944.471 863.024V454.428L892.812 446.626V433.949H1068.74C1124.3 433.949 1165.24 445.651 1192.04 469.055C1218.84 492.459 1232.49 526.59 1232.49 570.96C1232.49 615.331 1218.84 649.462 1192.04 672.866C1165.24 696.27 1123.81 707.972 1068.74 707.972H1005.88V863.024L1057.53 871.313V883.015H892.812V871.313ZM1060.95 695.782C1130.15 695.782 1164.75 658.238 1164.75 583.15V560.721C1164.75 486.121 1130.15 448.577 1060.95 448.577H1005.88V696.27H1060.95V695.782Z" fill="#0F0F0D"></path> <path d="M1390.39 864.487C1358.23 844.496 1333.37 816.703 1315.34 781.11C1297.31 745.516 1288.54 704.559 1288.54 658.726C1288.54 612.893 1297.31 571.936 1315.34 536.342C1333.37 500.749 1358.23 472.956 1390.39 452.965C1422.55 432.974 1459.11 423.223 1499.55 423.223C1540.49 423.223 1576.55 432.974 1608.72 452.965C1640.88 472.956 1665.74 500.749 1683.77 536.342C1701.8 571.936 1710.57 612.893 1710.57 658.726C1710.57 704.559 1701.8 745.516 1683.77 781.11C1665.74 816.703 1640.88 844.496 1608.72 864.487C1576.55 884.478 1540 894.229 1499.55 894.229C1459.11 894.229 1422.55 884.478 1390.39 864.487ZM1572.66 860.098C1594.1 845.958 1611.16 824.992 1623.34 798.175C1635.52 770.87 1641.86 739.177 1641.86 702.121V615.819C1641.86 578.762 1635.52 546.582 1623.34 519.764C1611.16 492.46 1594.1 471.981 1572.66 457.841C1551.21 443.701 1526.85 436.387 1500.04 436.387C1472.75 436.387 1448.38 443.701 1426.94 457.841C1405.5 471.981 1388.93 492.947 1376.26 519.764C1364.07 547.069 1357.74 578.762 1357.74 615.819V702.121C1357.74 739.177 1364.07 771.358 1376.26 798.175C1388.44 825.48 1405.5 845.958 1426.94 860.098C1448.38 874.238 1472.75 881.552 1500.04 881.552C1526.85 881.065 1551.21 874.238 1572.66 860.098Z" fill="#0F0F0D"></path> <path d="M1768.08 871.313L1819.74 863.024V454.428L1768.08 446.626V433.949H1944.5C2000.06 433.949 2040.99 445.651 2067.8 469.055C2094.6 492.459 2108.25 526.59 2108.25 570.96C2108.25 615.331 2094.6 649.462 2067.8 672.866C2040.99 696.27 1999.57 707.972 1944.5 707.972H1881.63V863.024L1933.29 871.313V883.015H1768.57V871.313H1768.08ZM1936.7 695.782C2005.91 695.782 2040.51 658.238 2040.51 583.15V560.721C2040.51 486.121 2005.91 448.577 1936.7 448.577H1881.63V696.27H1936.7V695.782Z" fill="#0F0F0D"></path> <path d="M2091.19 883.014V871.312L2146.26 848.883L2308.54 422.734H2317.31L2470.34 862.536L2522 870.825V882.527H2357.28V870.825L2403.09 863.511L2355.33 730.4H2206.2L2160.88 848.396L2211.56 870.825V882.527H2091.19V883.014ZM2210.59 719.186H2351.43L2284.18 521.714L2210.59 719.186Z" fill="#0F0F0D"></path> <path d="M319.698 1493.96C311.413 1485.67 307.027 1474.94 307.027 1462.75C307.027 1453 310.439 1444.71 316.774 1437.4C323.11 1430.09 332.369 1426.67 344.065 1426.67C350.888 1426.67 356.736 1428.14 361.122 1431.06C365.996 1433.99 368.92 1436.91 371.357 1439.35C373.306 1442.28 374.768 1444.23 374.768 1445.2C367.945 1449.59 364.534 1455.44 364.534 1462.75C364.534 1467.14 365.996 1471.04 368.92 1473.97C371.844 1476.89 375.743 1478.36 380.616 1478.36C392.8 1478.36 403.521 1469.09 412.293 1450.56C421.066 1432.04 428.376 1401.32 434.224 1357.92C440.072 1314.53 444.458 1255.53 447.382 1180.93L451.281 1090.24L391.825 1065.37V1052.7H718.345V1064.88L666.199 1072.69V1481.28L718.345 1489.57V1501.27H552.161V1489.57L604.307 1481.28V1066.84H467.363L462.49 1181.91C458.591 1265.77 453.718 1330.13 447.869 1374.5C442.021 1419.36 432.274 1452.51 418.629 1474.46C404.983 1496.4 385.49 1507.12 359.66 1507.12C341.141 1506.15 327.983 1502.25 319.698 1493.96Z" fill="#0F0F0D"></path> <path d="M1075.57 1481.77C1043.89 1461.78 1019.04 1433.98 1001.49 1398.39C983.947 1362.8 974.687 1321.84 974.687 1276.49V1276.01H893.301V1480.79L944.959 1489.08V1500.78H779.75V1489.08L831.408 1480.79V1072.2L779.75 1064.4V1052.21H944.472V1064.4L892.814 1072.2V1261.87H974.2C976.149 1218.47 986.383 1179.95 1004.42 1146.31C1022.93 1112.67 1047.3 1086.82 1078.49 1068.3C1109.68 1049.77 1144.28 1040.5 1183.27 1040.5C1223.72 1040.5 1259.78 1050.74 1291.46 1070.73C1323.14 1090.73 1347.99 1118.52 1365.54 1154.11C1383.08 1189.7 1392.34 1230.66 1392.34 1276.01C1392.34 1321.35 1383.57 1361.82 1365.54 1397.42C1347.99 1433.01 1323.14 1461.29 1291.46 1481.28C1259.78 1501.27 1223.72 1511.51 1182.78 1511.51C1143.31 1512 1107.24 1501.76 1075.57 1481.77ZM1256.37 1477.38C1277.33 1462.75 1293.9 1441.79 1305.59 1414.97C1317.29 1387.66 1323.14 1355.97 1323.14 1319.89V1233.59C1323.14 1197.51 1317.29 1166.3 1305.11 1139C1292.92 1111.69 1276.35 1090.73 1255.4 1076.1C1234.44 1061.47 1210.07 1054.16 1183.27 1054.16C1156.47 1054.16 1132.1 1061.47 1111.14 1076.1C1090.19 1090.73 1073.62 1111.69 1061.43 1139C1049.25 1166.3 1043.4 1197.51 1043.4 1233.59V1319.89C1043.4 1355.97 1049.25 1387.66 1060.95 1414.97C1072.64 1442.27 1089.21 1462.75 1110.17 1477.38C1131.12 1492.01 1155.49 1499.32 1182.78 1499.32C1211.05 1498.83 1234.93 1491.52 1256.37 1477.38Z" fill="#0F0F0D"></path> <path d="M1715.45 1491.03C1705.21 1480.79 1697.9 1463.73 1694 1439.35L1680.36 1344.76C1676.46 1318.43 1668.66 1298.92 1656.48 1286.73C1644.3 1274.54 1624.31 1268.69 1597.02 1268.69H1549.75V1480.31L1601.41 1488.59V1500.3H1436.69V1488.59L1488.35 1480.31V1071.71L1436.69 1063.91V1051.72H1601.41V1063.91L1549.75 1071.71V1255.04H1608.72C1626.75 1254.55 1641.86 1247.73 1654.53 1234.07C1667.2 1220.42 1676.46 1202.38 1681.82 1179.47L1699.37 1108.77C1704.73 1087.8 1712.52 1072.2 1723.25 1061.47C1733.97 1051.23 1746.64 1045.87 1761.75 1045.87C1773.93 1045.87 1784.65 1049.28 1793.91 1056.59C1803.17 1063.91 1807.56 1073.17 1807.56 1084.87C1807.56 1095.6 1804.63 1104.38 1798.3 1111.2C1791.96 1118.03 1784.16 1121.44 1773.93 1121.44H1762.72C1756.87 1105.35 1747.61 1097.55 1734.45 1097.55C1722.27 1097.55 1714.47 1103.89 1711.55 1116.57L1694 1187.27C1689.62 1204.82 1682.8 1219.93 1674.51 1232.12C1665.74 1244.31 1655.99 1253.09 1644.78 1257.97C1675.97 1261.87 1699.37 1270.64 1715.94 1284.78C1732.5 1298.92 1742.25 1318.43 1746.15 1342.81L1758.82 1427.65C1761.75 1446.66 1765.16 1459.83 1768.57 1467.63C1771.98 1474.94 1776.85 1479.82 1783.19 1481.28C1784.16 1481.77 1786.11 1481.77 1788.06 1481.77C1799.27 1481.77 1810.97 1475.43 1823.15 1462.75L1832.9 1472.99C1812.92 1495.91 1789.04 1507.12 1761.75 1507.12C1741.76 1506.15 1726.17 1501.27 1715.45 1491.03Z" fill="#0F0F0D"></path> <path d="M1958.63 1482.26C1927.93 1462.26 1904.54 1434.96 1887.48 1399.37C1870.91 1363.77 1862.62 1322.82 1862.62 1276.49C1862.62 1230.17 1870.91 1189.22 1887.97 1153.14C1905.02 1117.54 1928.9 1089.75 1960.09 1070.25C1991.28 1050.74 2027.35 1040.99 2068.28 1040.99C2084.37 1040.99 2100.94 1043.92 2117.51 1049.28C2134.07 1054.64 2149.18 1062.93 2162.83 1072.68L2200.35 1040.5H2212.05V1179.95H2200.35L2165.75 1093.16C2152.59 1080.97 2137.49 1071.71 2119.94 1064.4C2102.4 1057.08 2085.34 1053.67 2068.77 1053.67C2042.45 1053.67 2019.55 1060.49 1999.57 1073.66C1979.59 1087.31 1963.99 1106.82 1952.78 1132.66C1941.57 1158.5 1935.73 1189.22 1935.73 1224.81V1327.69C1935.73 1363.28 1941.09 1394 1951.81 1419.84C1962.53 1445.69 1977.64 1465.19 1997.13 1478.84C2016.63 1492.49 2039.53 1499.32 2065.36 1499.32C2084.37 1499.32 2103.37 1494.93 2122.38 1486.64C2141.39 1478.35 2157.47 1467.14 2170.14 1452.51L2202.79 1362.31H2214.49V1506.63H2202.79L2162.34 1477.87C2148.7 1488.59 2133.59 1497.37 2116.53 1503.22C2099.47 1509.07 2082.42 1512 2065.36 1512C2024.91 1512 1989.33 1502.25 1958.63 1482.26Z" fill="#0F0F0D"></path> <path d="M616.001 6.3386C638.906 6.3386 661.323 12.6772 678.868 26.3296C680.817 27.7923 681.792 30.2302 682.767 32.6682L685.203 32.1806C684.716 29.7427 684.229 26.3296 684.229 22.9165L683.254 0H686.178L689.102 90.2032H682.767L681.792 61.4357C679.842 33.6433 646.703 11.702 613.077 11.702C557.032 11.702 526.817 47.7833 526.817 115.07C526.817 189.67 558.494 229.652 616.975 229.652C649.627 229.652 681.305 213.562 693.001 187.233L698.849 189.183C685.691 220.388 652.064 235.503 616.488 235.503C544.361 235.503 496.602 189.183 496.602 120.433C496.602 51.684 544.361 6.3386 616.001 6.3386Z" fill="#0F0F0D"></path> <path d="M716.395 229.652H721.755C730.528 229.652 735.401 220.876 740.762 210.149L836.768 8.28906H863.085V12.1897C863.085 18.5283 864.547 26.3297 866.009 30.2304L946.908 210.149C953.731 225.264 954.705 229.652 966.889 229.652H969.813V232.578H904.509V229.652H930.825V229.165C925.952 227.702 922.541 219.901 920.104 214.537L901.097 171.63H765.616L747.097 210.149C746.122 212.587 745.148 215.025 745.148 217.463C745.148 224.777 751.483 229.652 761.717 229.652H778.287V232.578H716.395V229.652ZM899.148 166.266L841.154 36.569C838.718 31.6931 838.23 27.3049 838.23 23.8918H835.306C835.306 25.8421 834.332 29.7428 831.408 36.569L769.028 166.266H899.148Z" fill="#0F0F0D"></path> <path d="M1058.51 229.653H1070.69C1087.26 229.653 1088.72 228.19 1088.72 213.563V202.836C1020.01 198.935 975.172 167.242 975.172 120.434C975.172 74.1137 1020.01 42.4207 1088.72 38.52V27.7931C1088.72 12.678 1086.77 11.7029 1070.69 11.7029H1058.51V8.77734H1145.74V12.1904H1133.56C1116.99 12.1904 1115.04 13.6532 1115.04 28.2807V38.52C1183.75 41.9331 1228.59 74.1137 1228.59 120.434C1228.59 167.242 1183.75 198.935 1115.04 202.836V213.563C1115.04 228.678 1116.99 229.653 1133.56 229.653H1145.74V232.579H1058.51V229.653ZM1088.72 44.371C1038.04 48.2717 1005.39 75.5764 1005.39 115.071C1005.39 160.416 1038.04 191.622 1088.72 196.985V44.371ZM1115.53 196.985C1166.21 193.084 1198.86 165.78 1198.86 126.285C1198.86 80.9399 1166.21 49.2469 1115.53 44.371V196.985Z" fill="#0F0F0D"></path> <path d="M1250.52 229.653H1255.88C1273.43 229.653 1275.86 224.777 1277.33 207.712L1286.59 27.7931C1286.59 25.3552 1287.07 22.9173 1287.07 21.4545C1287.07 14.6284 1284.64 11.7029 1270.02 11.7029H1256.37V8.77734H1306.08L1394.78 187.233C1397.7 193.572 1400.14 198.935 1400.14 200.398H1402.09C1402.09 198.448 1404.52 191.622 1406.96 187.233L1495.66 8.77734H1546.83V11.7029H1535.13C1518.56 11.7029 1516.12 16.0911 1516.12 25.3552C1516.12 27.7931 1516.12 30.7187 1516.61 33.6442L1524.41 207.712C1524.9 225.265 1527.33 229.653 1546.34 229.653H1553.65V232.579H1464.47V229.653H1476.65C1495.66 229.653 1497.61 225.265 1497.61 217.464C1497.61 216.001 1497.61 214.05 1497.61 212.1L1490.78 47.7841C1490.3 41.9331 1490.3 37.5448 1490.3 34.1317H1488.35C1488.35 35.1069 1485.91 40.4703 1482.99 46.8089L1390.39 234.041L1389.42 235.992H1388.93L1387.95 234.041L1297.31 50.7096C1294.38 44.371 1293.41 38.52 1293.41 37.5448H1291.95C1291.95 40.4703 1291.95 42.4207 1291.46 48.2717L1282.69 211.613C1282.69 214.05 1282.2 216.488 1282.2 218.439C1282.2 225.753 1285.12 229.653 1303.64 229.653H1315.83V232.579H1250.04V229.653H1250.52Z" fill="#0F0F0D"></path> <path d="M1574.6 229.652H1579.97C1588.74 229.652 1593.61 220.876 1598.97 210.149L1694.98 8.28906H1721.29V12.1897C1721.29 18.5283 1722.76 26.3297 1724.22 30.2304L1805.12 210.149C1811.94 225.264 1812.92 229.652 1825.1 229.652H1828.02V232.578H1762.72V229.652H1789.04V229.165C1784.16 227.702 1780.75 219.901 1778.31 214.537L1759.31 171.63H1623.83L1605.31 210.149C1604.33 212.587 1603.36 215.025 1603.36 217.463C1603.36 224.777 1609.69 229.652 1619.93 229.652H1636.5V232.578H1574.12V229.652H1574.6ZM1757.36 166.266L1698.88 36.569C1696.44 31.6931 1695.95 27.3049 1695.95 23.8918H1693.03C1693.03 25.8421 1692.05 29.7428 1689.13 36.569L1626.75 166.266H1757.36Z" fill="#0F0F0D"></path> <path d="M1853.37 229.653H1865.55C1882.12 229.653 1883.58 228.19 1883.58 213.075V27.7931C1883.58 12.678 1881.63 11.2153 1865.55 11.2153H1853.37V8.77734H1939.63C1991.29 8.77734 2025.4 36.0821 2025.4 77.5268C2025.4 118.484 1990.8 145.789 1939.63 145.789H1910.39V213.563C1910.39 228.678 1912.34 230.141 1928.91 230.141H1937.68V233.066H1853.85V229.653H1853.37ZM1904.54 16.0911C1908.44 20.967 1910.39 28.2807 1910.39 35.5945V139.938H1929.39C1972.77 139.938 1995.67 117.996 1995.67 77.5268C1995.67 37.0572 1972.28 15.1159 1929.39 15.1159H1904.54V16.0911Z" fill="#0F0F0D"></path> <path d="M365.02 122.382L365.994 113.605H451.767L449.817 122.382H365.02Z" fill="#0F0F0D"></path> <path d="M2070.23 122.382L2071.7 113.605H2156.98L2155.52 122.382H2070.23Z" fill="#0F0F0D"></path> </g> <defs> <clipPath id="clip0_2050_4703"> <rect width="2522" height="1512" fill="white"></rect> </clipPath> </defs> </svg> 