<svg width="437" height="88" viewBox="0 0 437 88" fill="none" xmlns="http://www.w3.org/2000/svg">
<path d="M85.772 41.7122H107.454C110.581 41.7122 113.046 41.0013 114.847 39.5796C116.695 38.1579 117.619 36.2148 117.619 33.7505C117.619 31.2387 116.695 29.2957 114.847 27.9214C113.046 26.4996 110.581 25.7887 107.454 25.7887H84.4214L88.6155 20.5283V71H79.232V17.6848H108.307C112.05 17.6848 115.32 18.372 118.117 19.7464C120.96 21.0733 123.164 22.9453 124.728 25.3622C126.339 27.7318 127.145 30.5279 127.145 33.7505C127.145 36.8783 126.339 39.6507 124.728 42.0676C123.164 44.4372 120.96 46.3092 118.117 47.6835C115.32 49.0105 112.05 49.6739 108.307 49.6739H85.772V41.7122ZM96.2929 46.0485H107.311L128.495 71H117.264L96.2929 46.0485ZM152.077 71.9952C148.381 71.9952 145.229 71.237 142.623 69.7204C140.064 68.2039 138.097 66.0239 136.722 63.1804C135.348 60.337 134.661 56.9485 134.661 53.015V30.7648H143.902V51.5933C143.902 55.7637 144.85 58.9389 146.746 61.1189C148.689 63.2515 151.461 64.3178 155.063 64.3178C157.669 64.3178 159.897 63.7491 161.745 62.6117C163.641 61.4744 165.11 59.8631 166.152 57.7778C167.195 55.6452 167.716 53.1809 167.716 50.3848L170.915 52.162C170.536 56.285 169.493 59.8394 167.787 62.825C166.081 65.7633 163.878 68.038 161.176 69.6493C158.475 71.2133 155.442 71.9952 152.077 71.9952ZM170.062 71L167.716 56.4983V30.7648H176.958V57.92L179.303 71H170.062ZM228.952 58.7731C228.952 61.4744 228.194 63.8202 226.677 65.8107C225.161 67.8011 222.862 69.3413 219.782 70.4313C216.701 71.4739 212.839 71.9952 208.195 71.9952C203.408 71.9952 199.261 71.4028 195.755 70.218C192.248 68.9859 189.523 67.2798 187.58 65.0998C185.684 62.8724 184.665 60.3133 184.523 57.4224H193.906C194.191 58.9389 194.949 60.2896 196.181 61.4744C197.461 62.6117 199.119 63.4885 201.157 64.1046C203.242 64.7207 205.612 65.0287 208.266 65.0287C212.105 65.0287 214.995 64.5785 216.938 63.6781C218.881 62.7302 219.853 61.3085 219.853 59.4128C219.853 58.1333 219.19 57.1618 217.863 56.4983C216.583 55.8348 214.142 55.3372 210.541 55.0055L202.65 54.2946C198.385 53.9155 195.02 53.1572 192.556 52.0198C190.091 50.835 188.338 49.4133 187.295 47.7546C186.253 46.0485 185.731 44.2476 185.731 42.352C185.731 39.6033 186.584 37.3048 188.29 35.4566C189.996 33.6083 192.366 32.2103 195.399 31.2624C198.432 30.2672 201.963 29.7696 205.991 29.7696C210.161 29.7696 213.882 30.362 217.152 31.5468C220.422 32.6842 223.028 34.2955 224.971 36.3807C226.914 38.4185 228.004 40.7881 228.241 43.4894H218.858C218.668 42.3994 218.1 41.3568 217.152 40.3616C216.251 39.319 214.853 38.4659 212.958 37.8024C211.109 37.0916 208.621 36.7361 205.493 36.7361C202.176 36.7361 199.57 37.1626 197.674 38.0157C195.826 38.8687 194.901 40.1246 194.901 41.7833C194.901 42.8259 195.47 43.7263 196.608 44.4846C197.745 45.1955 199.854 45.6931 202.934 45.9774L213.1 46.9016C217.175 47.2807 220.351 48.0152 222.625 49.1052C224.948 50.1479 226.583 51.4985 227.53 53.1572C228.478 54.8159 228.952 56.6878 228.952 58.7731ZM234.241 53.6548H243.767C244.051 55.7874 244.928 57.6594 246.397 59.2707C247.914 60.882 249.904 62.1378 252.369 63.0383C254.833 63.8913 257.676 64.3178 260.899 64.3178C265.685 64.3178 269.477 63.5833 272.273 62.1141C275.069 60.5976 276.467 58.5598 276.467 56.0007C276.467 53.9155 275.661 52.3515 274.05 51.3089C272.439 50.2663 269.524 49.4844 265.306 48.9631L253.79 47.4702C247.345 46.6172 242.653 45.0296 239.715 42.7074C236.824 40.3379 235.379 36.9968 235.379 32.6842C235.379 29.4142 236.35 26.5944 238.293 24.2248C240.284 21.8079 243.08 19.9596 246.682 18.6801C250.283 17.3531 254.501 16.6896 259.335 16.6896C264.122 16.6896 268.363 17.4005 272.06 18.8222C275.756 20.244 278.694 22.2344 280.874 24.7935C283.102 27.3053 284.31 30.2672 284.5 33.6794H274.974C274.737 31.7837 273.932 30.1487 272.557 28.7744C271.23 27.4001 269.429 26.3337 267.155 25.5755C264.88 24.7698 262.202 24.367 259.122 24.367C254.762 24.367 251.279 25.0779 248.672 26.4996C246.066 27.9214 244.762 29.8644 244.762 32.3287C244.762 34.2244 245.521 35.6935 247.037 36.7361C248.601 37.7313 251.302 38.4896 255.141 39.0109L266.799 40.6459C271.586 41.3094 275.353 42.2098 278.102 43.3472C280.898 44.4372 282.889 45.93 284.073 47.8257C285.258 49.6739 285.85 52.0672 285.85 55.0055C285.85 58.4176 284.808 61.4033 282.723 63.9624C280.637 66.5215 277.699 68.512 273.908 69.9337C270.164 71.308 265.78 71.9952 260.757 71.9952C255.639 71.9952 251.113 71.237 247.179 69.7204C243.293 68.1565 240.213 66.0002 237.938 63.2515C235.663 60.5028 234.431 57.3039 234.241 53.6548ZM288.959 37.8735V33.6794L297.561 31.4757L301.4 20.244H306.802V30.7648H325.498V37.8735H306.802V55.2898C306.802 58.6546 307.513 61.0241 308.935 62.3985C310.404 63.7254 312.774 64.3889 316.044 64.3889C318.129 64.3889 319.977 64.1757 321.588 63.7491C323.2 63.2752 324.74 62.6117 326.209 61.7587V69.365C324.977 69.9811 323.223 70.5735 320.948 71.1422C318.721 71.7109 316.423 71.9952 314.053 71.9952C310.12 71.9952 306.944 71.3554 304.527 70.0759C302.11 68.7489 300.333 66.948 299.196 64.6733C298.106 62.3511 297.561 59.6972 297.561 56.7115V37.8735H288.959ZM331.021 30.7648H340.262L342.679 45.4087V71H333.438V43.6316L331.021 30.7648ZM363.081 30.4805V38.5844C362.038 38.3 360.901 38.0868 359.669 37.9446C358.436 37.8024 357.275 37.7313 356.185 37.7313C353.579 37.7313 351.257 38.3 349.219 39.4374C347.181 40.5748 345.57 42.2809 344.385 44.5557C343.248 46.7831 342.679 49.5318 342.679 52.8018L340.546 50.1715C340.736 47.3281 341.21 44.6742 341.968 42.2098C342.774 39.6981 343.864 37.5181 345.238 35.6698C346.66 33.8216 348.39 32.3761 350.427 31.3335C352.465 30.2909 354.835 29.7696 357.536 29.7696C358.484 29.7696 359.455 29.8407 360.451 29.9829C361.446 30.0777 362.323 30.2435 363.081 30.4805ZM389.553 71.9952C384.672 71.9952 380.383 71.1185 376.687 69.365C373.038 67.5641 370.17 65.0761 368.085 61.9009C366.047 58.7257 365.028 55.0528 365.028 50.8824C365.028 46.6646 366.047 42.9918 368.085 39.864C370.17 36.6887 373.038 34.2244 376.687 32.4709C380.383 30.67 384.672 29.7696 389.553 29.7696C394.435 29.7696 398.7 30.67 402.349 32.4709C406.046 34.2244 408.913 36.6887 410.951 39.864C413.036 42.9918 414.078 46.6646 414.078 50.8824C414.078 55.0528 413.036 58.7257 410.951 61.9009C408.913 65.0761 406.046 67.5641 402.349 69.365C398.7 71.1185 394.435 71.9952 389.553 71.9952ZM389.553 64.7444C392.681 64.7444 395.359 64.1757 397.586 63.0383C399.861 61.9009 401.615 60.3133 402.847 58.2755C404.079 56.1902 404.695 53.7259 404.695 50.8824C404.695 48.0389 404.079 45.5983 402.847 43.5605C401.615 41.4753 399.861 39.864 397.586 38.7266C395.359 37.5892 392.681 37.0205 389.553 37.0205C386.473 37.0205 383.795 37.5892 381.521 38.7266C379.246 39.864 377.492 41.4753 376.26 43.5605C375.028 45.5983 374.412 48.0389 374.412 50.8824C374.412 53.7259 375.028 56.1902 376.26 58.2755C377.492 60.3133 379.246 61.9009 381.521 63.0383C383.795 64.1757 386.473 64.7444 389.553 64.7444ZM421.59 30.4805L426.211 31.3335L430.832 30.4805V71H421.59V30.4805ZM426.211 25.4333C424.457 25.4333 423.012 24.9594 421.875 24.0116C420.737 23.0164 420.169 21.7368 420.169 20.1729C420.169 18.609 420.737 17.3531 421.875 16.4053C423.012 15.4101 424.457 14.9125 426.211 14.9125C428.012 14.9125 429.457 15.4101 430.547 16.4053C431.685 17.3531 432.253 18.609 432.253 20.1729C432.253 21.7368 431.685 23.0164 430.547 24.0116C429.457 24.9594 428.012 25.4333 426.211 25.4333Z" fill="white"/>
<path d="M0.913086 7.90552H36.69C56.449 7.90552 72.4669 23.9234 72.4669 43.6824V43.6824C72.4669 63.4415 56.449 79.4593 36.69 79.4593V79.4593C16.9309 79.4593 0.913086 63.4415 0.913086 43.6824V7.90552Z" fill="white"/>
</svg>
