<svg width="601" height="149" viewBox="0 0 601 149" fill="none" xmlns="http://www.w3.org/2000/svg">
<path d="M149 149C78.7607 149 43.6411 149 21.8205 127.179C-1.90761e-06 105.359 -3.44274e-06 70.2393 -6.513e-06 3.05176e-05L526.5 7.50353e-06C567.645 5.70502e-06 601 33.3548 601 74.5C601 115.645 567.645 149 526.5 149L149 149Z" fill="white"/>
<path d="M97.68 121.184C94.48 121.184 91.568 120.768 88.944 119.936C86.384 119.168 83.984 118.08 81.744 116.672V107.168C84.176 108.704 86.48 109.824 88.656 110.528C90.896 111.232 93.392 111.584 96.144 111.584C98.768 111.584 101.104 110.976 103.152 109.76C105.2 108.608 106.896 106.56 108.24 103.616L132.72 49.664H145.968L117.84 107.84C116.304 111.04 114.48 113.6 112.368 115.52C110.32 117.504 108.048 118.944 105.552 119.84C103.12 120.736 100.496 121.184 97.68 121.184ZM103.92 102.272L78.96 49.664H92.688L116.304 102.272H103.92ZM153.249 49.664H165.729V68.576L165.153 70.496V81.44L165.729 84.8V119.84H153.249V49.664ZM160.929 76.832C162.145 71.072 164.161 66.08 166.977 61.856C169.793 57.568 173.249 54.24 177.345 51.872C181.505 49.504 186.113 48.32 191.169 48.32C196.481 48.32 201.185 49.536 205.281 51.968C209.377 54.336 212.577 57.664 214.881 61.952C217.185 66.176 218.337 71.136 218.337 76.832C218.337 82.464 217.185 87.424 214.881 91.712C212.577 96 209.377 99.36 205.281 101.792C201.185 104.16 196.481 105.344 191.169 105.344C186.113 105.344 181.537 104.16 177.441 101.792C173.345 99.424 169.857 96.096 166.977 91.808C164.161 87.52 162.145 82.528 160.929 76.832ZM205.665 76.832C205.665 73.184 204.897 69.984 203.361 67.232C201.889 64.416 199.841 62.24 197.217 60.704C194.593 59.104 191.585 58.304 188.193 58.304C184.801 58.304 181.601 59.104 178.593 60.704C175.649 62.24 173.057 64.416 170.817 67.232C168.577 69.984 166.753 73.184 165.345 76.832C166.753 80.48 168.577 83.712 170.817 86.528C173.057 89.28 175.649 91.456 178.593 93.056C181.601 94.592 184.801 95.36 188.193 95.36C191.585 95.36 194.593 94.592 197.217 93.056C199.841 91.456 201.889 89.28 203.361 86.528C204.897 83.712 205.665 80.48 205.665 76.832ZM258.766 105.344C252.174 105.344 246.382 104.16 241.39 101.792C236.462 99.36 232.59 96 229.774 91.712C227.022 87.424 225.646 82.464 225.646 76.832C225.646 71.136 227.022 66.176 229.774 61.952C232.59 57.664 236.462 54.336 241.39 51.968C246.382 49.536 252.174 48.32 258.766 48.32C265.358 48.32 271.118 49.536 276.046 51.968C281.038 54.336 284.91 57.664 287.662 61.952C290.478 66.176 291.886 71.136 291.886 76.832C291.886 82.464 290.478 87.424 287.662 91.712C284.91 96 281.038 99.36 276.046 101.792C271.118 104.16 265.358 105.344 258.766 105.344ZM258.766 95.552C262.99 95.552 266.606 94.784 269.614 93.248C272.686 91.712 275.054 89.568 276.718 86.816C278.382 84 279.214 80.672 279.214 76.832C279.214 72.992 278.382 69.696 276.718 66.944C275.054 64.128 272.686 61.952 269.614 60.416C266.606 58.88 262.99 58.112 258.766 58.112C254.606 58.112 250.99 58.88 247.918 60.416C244.846 61.952 242.478 64.128 240.814 66.944C239.15 69.696 238.318 72.992 238.318 76.832C238.318 80.672 239.15 84 240.814 86.816C242.478 89.568 244.846 91.712 247.918 93.248C250.99 94.784 254.606 95.552 258.766 95.552ZM300.782 104L303.566 76.832L300.782 49.664H340.142C345.39 49.664 349.486 50.88 352.43 53.312C355.438 55.744 356.942 59.104 356.942 63.392C356.942 67.36 355.438 70.56 352.43 72.992C349.486 75.36 345.358 76.768 340.046 77.216L341.006 74.912C347.278 75.04 352.078 76.32 355.406 78.752C358.734 81.184 360.398 84.608 360.398 89.024C360.398 93.696 358.702 97.376 355.31 100.064C351.982 102.688 347.342 104 341.39 104H300.782ZM312.878 100.928L308.078 95.36H338.222C341.614 95.36 344.046 94.72 345.518 93.44C347.054 92.096 347.822 90.24 347.822 87.872C347.822 85.76 346.958 84 345.23 82.592C343.566 81.184 340.75 80.48 336.782 80.48H310.766V72.416H334.958C338.222 72.416 340.59 71.776 342.062 70.496C343.598 69.152 344.366 67.424 344.366 65.312C344.366 63.264 343.694 61.6 342.35 60.32C341.07 58.976 338.894 58.304 335.822 58.304H308.174L312.878 52.832L315.566 76.832L312.878 100.928ZM370.468 49.664H382.852V104H370.468V49.664ZM416.644 49.664H429.028V104H416.644V49.664ZM377.476 71.648H421.828V81.248H377.476V71.648ZM487.496 75.296V84.032H460.04L459.848 83.744C455.88 83.744 452.392 83.04 449.384 81.632C446.376 80.224 444.04 78.24 442.376 75.68C440.712 73.12 439.88 70.144 439.88 66.752C439.88 63.36 440.712 60.384 442.376 57.824C444.04 55.264 446.376 53.28 449.384 51.872C452.392 50.4 455.88 49.664 459.848 49.664H496.328V104H483.848V53.216L487.976 58.592H462.536C459.4 58.592 456.936 59.328 455.144 60.8C453.416 62.272 452.552 64.288 452.552 66.848C452.552 69.408 453.416 71.456 455.144 72.992C456.936 74.528 459.4 75.296 462.536 75.296H487.496ZM473.384 78.56L453.224 104H438.728L459.464 78.56H473.384Z" fill="#EA4D4F"/>
</svg>
